<svg width="1024" height="1024" viewBox="0 0 1024 1024" fill="none" xmlns="http://www.w3.org/2000/svg">
<g clip-path="url(#clip0_51_2)">
<path d="M386.673 253.24C389.772 253.225 392.872 253.206 395.972 253.184C404.341 253.137 412.71 253.145 421.079 253.166C428.087 253.179 435.094 253.164 442.101 253.149C458.641 253.114 475.181 253.123 491.721 253.162C508.741 253.202 525.761 253.171 542.781 253.104C557.437 253.049 572.092 253.035 586.748 253.055C595.483 253.066 604.217 253.063 612.951 253.021C621.168 252.983 629.383 252.998 637.6 253.051C640.601 253.062 643.602 253.056 646.603 253.029C667.967 252.857 684.842 256.058 701.428 270.66C713.113 283.5 718.078 298.636 717.806 315.701C716.207 334.51 708.16 348.814 697.008 363.569C694.264 367.21 691.572 370.885 688.883 374.567C683.671 381.695 678.426 388.798 673.17 395.894C667.871 403.054 662.593 410.229 657.313 417.403C655.799 419.459 655.799 419.459 654.255 421.556C644.828 434.362 635.428 447.188 626.037 460.02C616.313 458.75 609.489 453.757 601.346 448.59C596.032 445.882 593.258 445.077 587.409 445.961C583.55 449.103 583.55 449.103 583.431 453.259C583.505 466.415 584.641 479.322 586.159 492.377C586.606 496.234 587.017 500.093 587.409 503.955C587.661 506.372 587.661 506.372 587.917 508.836C587.197 514.378 584.753 516.726 581.044 520.87C573.537 529.645 566.572 538.678 559.755 548C558.705 549.435 557.654 550.869 556.572 552.347C548.602 563.257 540.695 574.213 532.807 585.183C525.799 594.917 518.705 604.584 511.58 614.232C504.128 624.329 496.713 634.45 489.413 644.657C488.32 646.181 488.32 646.181 487.206 647.735C484.679 651.284 482.255 654.702 480.304 658.607C481.303 658.602 482.302 658.597 483.331 658.592C507.69 658.475 532.048 658.389 556.406 658.334C568.186 658.306 579.966 658.27 591.745 658.209C603.118 658.152 614.491 658.12 625.865 658.107C630.199 658.097 634.532 658.078 638.866 658.049C644.948 658.011 651.029 658.006 657.11 658.008C658.892 657.989 660.674 657.97 662.51 657.951C680.12 658.027 695.106 662.757 708.561 674.423C720.155 688.076 725.522 702.086 724.96 719.965C723.113 736.756 715.947 749.452 703.293 760.536C691.22 768.83 681.541 771.343 666.998 771.339C665.634 771.346 664.269 771.352 662.864 771.359C658.288 771.378 653.712 771.385 649.136 771.392C645.857 771.403 642.577 771.414 639.298 771.427C628.524 771.464 617.751 771.482 606.977 771.499C603.266 771.506 599.555 771.514 595.845 771.521C578.41 771.554 560.975 771.579 543.541 771.594C523.425 771.611 503.309 771.657 483.194 771.729C467.639 771.782 452.085 771.808 436.531 771.813C427.244 771.817 417.957 771.833 408.67 771.877C399.929 771.918 391.189 771.926 382.448 771.908C379.247 771.907 376.045 771.918 372.844 771.942C341.922 772.162 341.922 772.162 329.304 764.051C327.172 762.783 327.172 762.783 324.996 761.49C310.331 750.418 303.635 738.089 299.455 720.116C295.579 688.092 317.248 665.042 335.134 640.971C341.168 632.845 347.103 624.65 353.007 616.429C361.856 604.123 370.815 591.903 379.818 579.709C386.744 570.317 393.601 560.879 400.414 551.405C409.246 539.124 418.186 526.927 427.171 514.759C437.974 500.11 448.616 485.347 459.234 470.565C473.336 477.273 484.314 490.152 495.064 501.264C497.756 504.12 497.756 504.12 501.374 505.713C500.356 511.634 498.559 514.439 494.241 518.564C492.584 520.151 492.584 520.151 490.894 521.77C483.234 528.803 475.422 535.617 467.355 542.179C461.655 547.069 459.398 549.666 458.686 557.227C459.405 565.721 461.771 571.215 467.465 577.547C473.796 580.63 478.876 581.516 485.572 579.524C492.041 574.868 497.497 569.327 503.13 563.707C505.38 561.746 507.647 559.804 509.934 557.886C517.165 551.604 523.86 544.817 530.543 537.962C534.866 533.559 539.241 529.399 544.008 525.477C551.001 519.694 551.941 516.847 553.281 507.91C553.052 499.685 549.176 495.523 543.624 489.786C538.988 485.428 534.262 481.21 529.412 477.093C526.053 474.164 522.928 471.113 519.81 467.929C514.413 462.428 508.718 457.381 502.876 452.359C500.002 449.816 497.33 447.196 494.68 444.423C491.022 440.326 491.022 440.326 485.572 438.932C487.764 432.939 490.224 428.12 494.063 423.033C495.065 421.689 496.068 420.346 497.101 418.962C498.149 417.578 499.197 416.193 500.277 414.767C508.597 403.709 516.696 392.516 524.657 381.196C525.629 379.816 526.601 378.436 527.602 377.014C529.981 373.636 532.358 370.257 534.735 366.878C532.538 366.88 530.341 366.881 528.077 366.882C507.309 366.889 486.542 366.84 465.774 366.737C455.098 366.686 444.423 366.654 433.748 366.667C423.433 366.679 413.119 366.639 402.804 366.564C398.882 366.545 394.959 366.543 391.036 366.561C347.859 366.73 347.859 366.73 330.71 351.045C317.537 337.387 312.734 322.141 313.035 303.433C314.395 288.584 321.72 278.33 331.231 267.276C348.272 253.617 365.83 253.124 386.673 253.24Z" fill="#17B3F6"/>
<path d="M596.133 460C604.352 461.364 609.833 464.592 616.562 469.316C618.898 470.914 621.237 472.507 623.578 474.097C624.818 474.941 626.059 475.785 627.338 476.654C634.273 481.291 641.345 485.71 648.414 490.14C650.536 491.479 650.536 491.479 652.7 492.845C658.791 496.682 664.889 500.489 671.088 504.149C672.848 505.205 674.608 506.26 676.421 507.348C677.914 508.216 679.407 509.084 680.945 509.978C682.457 511.28 682.457 511.28 684 512.609C684 514.923 684 517.238 684 519.623C680.27 521.678 676.536 523.722 672.797 525.761C671.737 526.346 670.677 526.932 669.584 527.535C661.553 531.899 661.553 531.899 657.64 531.899C662.674 542.546 668.061 552.26 675.145 561.696C676.971 565.217 676.971 565.217 676.861 568.875C674.611 573.458 672.019 574.703 667.525 577.054C666.134 577.805 664.743 578.555 663.31 579.329C659.397 581 659.397 581 654.125 581C651.913 578.319 651.913 578.319 649.766 574.602C648.99 573.273 648.214 571.944 647.415 570.574C646.224 568.465 646.224 568.465 645.009 566.313C644.195 564.921 643.38 563.528 642.541 562.094C636.552 551.707 636.552 551.707 636.552 547.681C628.132 552.232 620.854 557.178 613.521 563.334C610.192 565.217 610.192 565.217 606.469 564.458C605.378 564.13 604.286 563.802 603.162 563.464C602.147 552.676 601.146 541.887 600.159 531.097C599.822 527.437 599.481 523.777 599.136 520.118C597.245 500.031 595.498 480.197 596.133 460Z" fill="#56E0A0"/>
</g>
<defs>
<clipPath id="clip0_51_2">
<rect width="1024" height="1024" fill="white"/>
</clipPath>
</defs>
</svg>
